HIERARCHY
ROOT hip
{
  OFFSET 4.77551 80.0829 152.221
  CHANNELS 6 Xposition Yposition Zposition Zrotation Xrotation Yrotation
  JOINT abdomen
  {
    OFFSET 0 20.6881 -0.73152
    CHANNELS 3 Zrotation Xrotation Yrotation
    JOINT chest
    {
      OFFSET 0 11.7043 -0.48768
      CHANNELS 3 Zrotation Xrotation Yrotation
      JOINT neck
      {
        OFFSET 0 22.1894 -2.19456
        CHANNELS 3 Zrotation Xrotation Yrotation
        JOINT head
        {
          OFFSET -0.24384 7.07133 1.2192
          CHANNELS 3 Zrotation Xrotation Yrotation
          JOINT leftEye
          {
            OFFSET 4.14528 8.04674 8.04672
            CHANNELS 3 Zrotation Xrotation Yrotation
            End Site
            {
              OFFSET 1 0 0
            }
          }
          JOINT rightEye
          {
            OFFSET -3.6576 8.04674 8.04672
            CHANNELS 3 Zrotation Xrotation Yrotation
            End Site
            {
              OFFSET 1 0 0
            }
          }
        }
      }
      JOINT rCollar
      {
        OFFSET -2.68224 19.2634 -4.8768
        CHANNELS 3 Zrotation Xrotation Yrotation
        JOINT rShldr
        {
          OFFSET -8.77824 -1.95073 1.46304
          CHANNELS 3 Zrotation Xrotation Yrotation
          JOINT rForeArm
          {
            OFFSET -28.1742 -1.7115 0.48768
            CHANNELS 3 Zrotation Xrotation Yrotation
            JOINT rHand
            {
              OFFSET -22.5879 0.773209 7.07136
              CHANNELS 3 Zrotation Xrotation Yrotation
              JOINT rThumb1
              {
                OFFSET -1.2192 -0.487915 3.41376
                CHANNELS 3 Zrotation Xrotation Yrotation
                JOINT rThumb2
                {
                  OFFSET -3.37035 -0.52449 3.41376
                  CHANNELS 3 Zrotation Xrotation Yrotation
                  End Site
                  {
                    OFFSET -1.78271 -1.18214 1.43049
                  }
                }
              }
              JOINT rIndex1
              {
                OFFSET -7.75947 0.938293 5.60832
                CHANNELS 3 Zrotation Xrotation Yrotation
                JOINT rIndex2
                {
                  OFFSET -2.54057 -0.884171 1.56538
                  CHANNELS 3 Zrotation Xrotation Yrotation
                  End Site
                  {
                    OFFSET -1.62519 -0.234802 1.16502
                  }
                }
              }
              JOINT rMid1
              {
                OFFSET -8.24714 1.18213 3.41376
                CHANNELS 3 Zrotation Xrotation Yrotation
                JOINT rMid2
                {
                  OFFSET -3.10165 -0.590103 1.0647
                  CHANNELS 3 Zrotation Xrotation Yrotation
                  End Site
                  {
                    OFFSET -2.48547 -0.328903 0.83742
                  }
                }
              }
              JOINT rRing1
              {
                OFFSET -8.82822 0.546677 1.51678
                CHANNELS 3 Zrotation Xrotation Yrotation
                JOINT rRing2
                {
                  OFFSET -2.60934 -0.819778 -0.0198488
                  CHANNELS 3 Zrotation Xrotation Yrotation
                  End Site
                  {
                    OFFSET -2.33842 -0.294052 0.168128
                  }
                }
              }
              JOINT rPinky1
              {
                OFFSET -8.27202 -0.0477905 -0.4584
                CHANNELS 3 Zrotation Xrotation Yrotation
                JOINT rPinky2
                {
                  OFFSET -1.82734 -0.647385 -0.700984
                  CHANNELS 3 Zrotation Xrotation Yrotation
                  End Site
                  {
                    OFFSET -1.69225 -0.51767 -0.607171
                  }
                }
              }
            }
          }
        }
      }
      JOINT lCollar
      {
        OFFSET 2.68224 19.2634 -4.8768
        CHANNELS 3 Zrotation Xrotation Yrotation
        JOINT lShldr
        {
          OFFSET 8.77824 -1.95073 1.46304
          CHANNELS 3 Zrotation Xrotation Yrotation
          JOINT lForeArm
          {
            OFFSET 28.1742 -1.7115 0.48768
            CHANNELS 3 Zrotation Xrotation Yrotation
            JOINT lHand
            {
              OFFSET 22.5879 0.773209 7.07136
              CHANNELS 3 Zrotation Xrotation Yrotation
              JOINT lThumb1
              {
                OFFSET 1.2192 -0.487915 3.41376
                CHANNELS 3 Zrotation Xrotation Yrotation
                JOINT lThumb2
                {
                  OFFSET 3.37035 -0.52449 3.41376
                  CHANNELS 3 Zrotation Xrotation Yrotation
                  End Site
                  {
                    OFFSET 1.78271 -1.18214 1.43049
                  }
                }
              }
              JOINT lIndex1
              {
                OFFSET 7.75947 0.938293 5.60832
                CHANNELS 3 Zrotation Xrotation Yrotation
                JOINT lIndex2
                {
                  OFFSET 2.54057 -0.884171 1.56538
                  CHANNELS 3 Zrotation Xrotation Yrotation
                  End Site
                  {
                    OFFSET 1.62519 -0.234802 1.16502
                  }
                }
              }
              JOINT lMid1
              {
                OFFSET 8.24714 1.18213 3.41376
                CHANNELS 3 Zrotation Xrotation Yrotation
                JOINT lMid2
                {
                  OFFSET 3.10165 -0.590103 1.0647
                  CHANNELS 3 Zrotation Xrotation Yrotation
                  End Site
                  {
                    OFFSET 2.48547 -0.328903 0.83742
                  }
                }
              }
              JOINT lRing1
              {
                OFFSET 8.82822 0.546677 1.51678
                CHANNELS 3 Zrotation Xrotation Yrotation
                JOINT lRing2
                {
                  OFFSET 2.60934 -0.819778 -0.0198488
                  CHANNELS 3 Zrotation Xrotation Yrotation
                  End Site
                  {
                    OFFSET 2.33842 -0.294052 0.168128
                  }
                }
              }
              JOINT lPinky1
              {
                OFFSET 8.27202 -0.0477905 -0.4584
                CHANNELS 3 Zrotation Xrotation Yrotation
                JOINT lPinky2
                {
                  OFFSET 1.82734 -0.647385 -0.700984
                  CHANNELS 3 Zrotation Xrotation Yrotation
                  End Site
                  {
                    OFFSET 1.69225 -0.51767 -0.607171
                  }
                }
              }
            }
          }
        }
      }
    }
  }
  JOINT rButtock
  {
    OFFSET -8.77824 4.35084 1.2192
    CHANNELS 3 Zrotation Xrotation Yrotation
    JOINT rThigh
    {
      OFFSET 0 -1.70687 -2.19456
      CHANNELS 3 Zrotation Xrotation Yrotation
      JOINT rShin
      {
        OFFSET 0 -36.8199 0.73152
        CHANNELS 3 Zrotation Xrotation Yrotation
        JOINT rFoot
        {
          OFFSET 0.73152 -45.1104 -5.12064
          CHANNELS 3 Zrotation Xrotation Yrotation
          End Site
          {
            OFFSET -1.1221 -3.69964 12.103
          }
        }
      }
    }
  }
  JOINT lButtock
  {
    OFFSET 8.77824 4.35084 1.2192
    CHANNELS 3 Zrotation Xrotation Yrotation
    JOINT lThigh
    {
      OFFSET 0 -1.70687 -2.19456
      CHANNELS 3 Zrotation Xrotation Yrotation
      JOINT lShin
      {
        OFFSET 0 -36.8199 0.73152
        CHANNELS 3 Zrotation Xrotation Yrotation
        JOINT lFoot
        {
          OFFSET -0.73152 -45.1104 -5.12064
          CHANNELS 3 Zrotation Xrotation Yrotation
          End Site
          {
            OFFSET 1.1221 -3.69964 12.103
          }
        }
      }
    }
  }
}
MOTION
Frames:	9
Frame Time:	0.00833333
-0.387318 82.1126 -176.143 -6.50137 10.9884 0.205759 8.21273 6.22942 6.77085 4.72421 -1.56627 2.04967 -9.25309 -1.27275 -0.89092 -6.8094 -8.72291 0.533979 -0 0 0 -0 0 0 1.07046e-013 -3.49776e-014 4.91992e-015 71.5221 -17.5791 3.21036 -4.66966 -1.4832 8.12036 -0.0342016 5.27135 0.742958 -9.33807e-011 -2.17379e-010 1.85999e-010 -1.60047e-010 -3.7473e-010 3.22005e-010 -9.33759e-011 -2.17379e-010 1.85992e-010 7.73091 5.47488 0.417314 -9.33803e-011 -2.17379e-010 1.85992e-010 2.90554 0.965183 0.102902 -9.33727e-011 -2.17377e-010 1.85996e-010 10.2786 0.731801 0.0259123 -9.33861e-011 -2.17374e-010 1.86008e-010 2.22167 -0.733487 -0.20892 1.06854e-013 -3.49958e-014 4.62174e-015 -87.0298 24.6369 11.1974 15.3201 -8.07045 -28.2499 0.0370764 5.4876 -0.773623 2.67478e-010 -1.27308e-010 -2.48847e-011 4.64885e-010 -2.20791e-010 -4.34018e-011 2.67471e-010 -1.27312e-010 -2.48688e-011 -7.73091 5.47488 -0.417314 2.67478e-010 -1.27313e-010 -2.48783e-011 -2.90554 0.965183 -0.102902 2.67475e-010 -1.27311e-010 -2.48823e-011 -10.2786 0.731801 -0.0259123 2.67484e-010 -1.27307e-010 -2.48974e-011 -2.22167 -0.733487 0.20892 -2.03217e-016 0 -3.88251e-019 11.4335 7.29543 3.32802 0.0857391 4.80434 0.693013 -4.18229 -12.104 -15.8613 2.03217e-016 0 3.88251e-019 2.69615 -45.1215 -2.20266 0.113636 22.1604 -0.513343 0.0239637 -8.35669 -2.29008 
-0.342672 82.082 -175.506 -6.54597 11.0623 -0.00454622 8.09793 6.00686 6.93673 4.72268 -1.5051 2.09088 -9.30918 -1.26194 -0.88431 -6.61783 -8.68147 0.578853 -0 0 0 -0 0 0 6.44281e-014 8.48064e-015 7.42686e-015 71.5391 -17.5036 3.26693 -4.67218 -1.48414 8.12489 -0.0327377 5.15288 0.726173 2.09986e-011 4.01599e-010 -8.27837e-010 3.30319e-011 6.95353e-010 -1.43086e-009 2.10003e-011 4.01598e-010 -8.27843e-010 7.73091 5.47488 0.417314 2.09986e-011 4.01599e-010 -8.27842e-010 2.90554 0.965183 0.102902 2.10057e-011 4.016e-010 -8.27838e-010 10.2786 0.731801 0.0259123 2.09921e-011 4.01604e-010 -8.27827e-010 2.22167 -0.733487 -0.20892 6.42396e-014 8.46459e-015 7.11936e-015 -87.0255 24.3943 11.3246 15.2423 -8.00172 -28.0887 0.0387114 5.607 -0.790563 3.92471e-010 1.62598e-010 6.90757e-010 6.84602e-010 2.8087e-010 1.19398e-009 3.92465e-010 1.62595e-010 6.90771e-010 -7.73091 5.47488 -0.417314 3.92471e-010 1.62595e-010 6.90762e-010 -2.90554 0.965183 -0.102902 3.92467e-010 1.62597e-010 6.90759e-010 -10.2786 0.731801 -0.0259123 3.92476e-010 1.626e-010 6.90747e-010 -2.22167 -0.733487 0.20892 -2.03217e-016 0 -3.88251e-019 11.3885 7.624 3.40721 0.0839755 4.80827 0.690567 -4.05939 -11.777 -15.7129 2.03217e-016 0 3.88251e-019 2.64076 -44.797 -2.56888 0.113997 22.2299 -0.515046 0.0113312 -8.29057 -2.33894 
-0.395218 82.0144 -174.896 -6.60141 11.1388 -0.200262 7.98106 5.7396 7.12913 4.7431 -1.44546 2.13967 -9.33984 -1.19836 -0.883106 -6.46547 -8.66383 0.592832 -0 0 0 -0 0 0 4.58351e-015 8.28992e-014 6.27104e-015 71.5401 -17.4654 3.2947 -4.64358 -1.47284 8.07426 -0.0315926 5.0574 0.712652 -6.84258e-013 1.21789e-009 -2.36152e-009 -1.14218e-011 2.10653e-009 -4.08133e-009 -6.84928e-013 1.21789e-009 -2.36152e-009 7.73091 5.47488 0.417314 -6.85021e-013 1.21789e-009 -2.36152e-009 2.90554 0.965183 0.102902 -6.78433e-013 1.21789e-009 -2.36151e-009 10.2786 0.731801 0.0259123 -6.92165e-013 1.21789e-009 -2.3615e-009 2.22167 -0.733487 -0.20892 4.41187e-015 8.28861e-014 5.95422e-015 -87.0268 24.2076 11.4565 15.1645 -7.93337 -27.9279 0.0404389 5.72995 -0.808014 3.54339e-010 5.77428e-010 1.65452e-009 6.23452e-010 9.98667e-010 2.86145e-009 3.54335e-010 5.77428e-010 1.65453e-009 -7.73091 5.47488 -0.417314 3.54341e-010 5.77429e-010 1.65452e-009 -2.90554 0.965183 -0.102902 3.54333e-010 5.77431e-010 1.65452e-009 -10.2786 0.731801 -0.0259123 3.54343e-010 5.77434e-010 1.65451e-009 -2.22167 -0.733487 0.20892 -2.03217e-016 0 -3.88251e-019 11.3503 7.96106 3.47661 0.0820257 4.81251 0.686974 -3.92463 -11.414 -15.5467 2.03217e-016 0 3.88251e-019 2.57684 -44.4083 -2.98166 0.114259 22.2781 -0.516123 -0.00019911 -8.15945 -2.39274 
-0.248455 81.9737 -174.269 -6.62396 11.213 -0.358177 7.83493 5.46181 7.30608 4.76086 -1.39746 2.18416 -9.35416 -1.12648 -0.885269 -6.3313 -8.63371 0.593114 -0 0 0 -0 0 0 -5.04573e-014 1.50857e-013 5.43358e-015 71.5434 -17.4462 3.29866 -4.60697 -1.4584 8.00951 -0.0302306 4.9481 0.697169 -6.22007e-011 1.91017e-009 -3.67212e-009 -1.23771e-010 3.30327e-009 -6.34598e-009 -6.22026e-011 1.91017e-009 -3.67212e-009 7.73091 5.47488 0.417314 -6.22022e-011 1.91017e-009 -3.67212e-009 2.90554 0.965183 0.102902 -6.21961e-011 1.91017e-009 -3.67212e-009 10.2786 0.731801 0.0259123 -6.22097e-011 1.91017e-009 -3.67211e-009 2.22167 -0.733487 -0.20892 -5.06032e-014 1.50847e-013 5.11676e-015 -87.0164 24.0491 11.5837 15.0845 -7.86352 -27.7627 0.0422582 5.85665 -0.826007 2.47641e-010 9.23029e-010 2.45032e-009 4.42758e-010 1.59668e-009 4.23867e-009 2.4764e-010 9.23031e-010 2.45032e-009 -7.73091 5.47488 -0.417314 2.47645e-010 9.23033e-010 2.45032e-009 -2.90554 0.965183 -0.102902 2.47634e-010 9.23035e-010 2.45032e-009 -10.2786 0.731801 -0.0259123 2.47644e-010 9.23037e-010 2.45031e-009 -2.22167 -0.733487 0.20892 -2.03217e-016 0 -3.88251e-019 11.2708 8.30291 3.50388 0.0801415 4.81779 0.683372 -3.77445 -11.007 -15.3533 2.03217e-016 0 3.88251e-019 2.46134 -44.0095 -3.37395 0.114574 22.3228 -0.516723 -0.0207503 -7.90706 -2.5137 
-0.243142 81.9796 -173.59 -6.57006 11.2797 -0.455045 7.63113 5.20758 7.42568 4.75138 -1.37121 2.2125 -9.36122 -1.09077 -0.888761 -6.19434 -8.55483 0.596893 -0 0 0 -0 0 0 -7.86636e-014 1.74935e-013 8.89561e-015 71.5672 -17.4274 3.2838 -4.58557 -1.44995 7.97167 -0.0282008 4.78813 0.674515 -6.7322e-011 2.15712e-009 -4.01674e-009 -1.34379e-010 3.73003e-009 -6.94136e-009 -6.7324e-011 2.15712e-009 -4.01674e-009 7.73091 5.47488 0.417314 -6.73239e-011 2.15712e-009 -4.01673e-009 2.90554 0.965183 0.102902 -6.73184e-011 2.15712e-009 -4.01673e-009 10.2786 0.731801 0.0259123 -6.73315e-011 2.15712e-009 -4.01672e-009 2.22167 -0.733487 -0.20892 -7.8779e-014 1.74925e-013 8.59744e-015 -86.977 23.8912 11.6968 15 -7.79026 -27.5885 0.0441695 5.98734 -0.844573 1.66939e-010 1.00525e-009 2.66208e-009 3.03847e-010 1.73901e-009 4.60531e-009 1.66939e-010 1.00525e-009 2.66208e-009 -7.73091 5.47488 -0.417314 1.66943e-010 1.00525e-009 2.66208e-009 -2.90554 0.965183 -0.102902 1.6693e-010 1.00525e-009 2.66208e-009 -10.2786 0.731801 -0.0259123 1.66941e-010 1.00525e-009 2.66208e-009 -2.22167 -0.733487 0.20892 -2.03217e-016 0 -3.88251e-019 11.1022 8.64589 3.45656 0.0785749 4.82483 0.680903 -3.60578 -10.548 -15.1235 2.03217e-016 0 3.88251e-019 2.24675 -43.6553 -3.68177 0.115093 22.3822 -0.516993 -0.0582795 -7.47716 -2.76384 
-0.0957065 82.005 -172.916 -6.41321 11.3461 -0.463935 7.34669 4.97493 7.46039 4.70689 -1.37939 2.21711 -9.35705 -1.11507 -0.894829 -6.05125 -8.40454 0.605723 -0 0 0 -0 0 0 -5.94321e-014 1.2396e-013 2.18015e-014 71.6257 -17.4048 3.25317 -4.58391 -1.44927 7.96876 -0.025233 4.54445 0.640025 -2.54388e-011 1.65301e-009 -2.73946e-009 -5.66017e-011 2.85822e-009 -4.73395e-009 -2.54386e-011 1.65301e-009 -2.73946e-009 7.73091 5.47488 0.417314 -2.54408e-011 1.65301e-009 -2.73945e-009 2.90554 0.965183 0.102902 -2.54361e-011 1.65301e-009 -2.73945e-009 10.2786 0.731801 0.0259123 -2.54478e-011 1.65302e-009 -2.73945e-009 2.22167 -0.733487 -0.20892 -5.9504e-014 1.23949e-013 2.15596e-014 -86.9057 23.7207 11.8138 14.9127 -7.71492 -27.4092 0.0460522 6.11089 -0.862137 6.58287e-011 6.37194e-010 1.86423e-009 1.2409e-010 1.10229e-009 3.22545e-009 6.5828e-011 6.37196e-010 1.86424e-009 -7.73091 5.47488 -0.417314 6.58325e-011 6.37199e-010 1.86423e-009 -2.90554 0.965183 -0.102902 6.58203e-011 6.37199e-010 1.86423e-009 -10.2786 0.731801 -0.0259123 6.58301e-011 6.37202e-010 1.86423e-009 -2.22167 -0.733487 0.20892 -2.03217e-016 0 -3.88251e-019 10.8104 9.07438 3.30562 0.0780589 4.66711 0.679852 -3.39268 -9.97594 -14.8393 2.03217e-016 0 3.88251e-019 1.87285 -43.3716 -3.9065 0.115614 22.4526 -0.519325 -0.112696 -6.74916 -3.20434 
-0.0230294 82.0534 -172.219 -6.18206 11.4123 -0.404072 7.00061 4.74924 7.43813 4.64092 -1.41327 2.2058 -9.33894 -1.17167 -0.903964 -5.91246 -8.20649 0.61145 -0 0 0 -0 0 0 -9.42193e-015 2.49541e-014 4.0667e-014 71.7061 -17.388 3.20357 -4.5902 -1.45172 7.97987 -0.0219063 4.24444 0.597603 2.38108e-011 6.42576e-010 -3.8911e-010 3.86193e-011 1.11093e-009 -6.72e-010 2.38149e-011 6.42574e-010 -3.89113e-010 7.73091 5.47488 0.417314 2.38089e-011 6.42576e-010 -3.89108e-010 2.90554 0.965183 0.102902 2.38128e-011 6.42576e-010 -3.89109e-010 10.2786 0.731801 0.0259123 2.38031e-011 6.4258e-010 -3.89101e-010 2.22167 -0.733487 -0.20892 -9.43831e-015 2.49406e-014 4.05086e-014 -86.8112 23.5541 11.933 14.823 -7.63787 -27.2256 0.0479411 6.23091 -0.879211 -8.22477e-011 -3.25404e-011 3.83557e-010 -1.40669e-010 -5.63881e-011 6.64565e-010 -8.22501e-011 -3.25419e-011 3.83566e-010 -7.73091 5.47488 -0.417314 -8.22446e-011 -3.25386e-011 3.83553e-010 -2.90554 0.965183 -0.102902 -8.22548e-011 -3.254e-011 3.83554e-010 -10.2786 0.731801 -0.0259123 -8.2247e-011 -3.25352e-011 3.83545e-010 -2.22167 -0.733487 0.20892 -2.03217e-016 0 -3.88251e-019 10.4311 9.56195 3.07472 0.0782352 4.39981 0.679631 -3.14922 -9.31367 -14.5123 2.03217e-016 0 3.88251e-019 1.3774 -43.126 -4.07849 0.116144 22.5273 -0.522858 -0.165966 -5.78858 -3.78629 
0.139686 82.1324 -171.534 -5.9156 11.4621 -0.321457 6.62726 4.54563 7.40005 4.56099 -1.4509 2.18975 -9.31791 -1.22772 -0.912988 -5.77776 -7.99395 0.616689 -0 0 0 -0 0 0 3.75036e-014 -7.22127e-014 5.65305e-014 71.7861 -17.3794 3.13051 -4.60307 -1.45678 8.00263 -0.0189372 3.94193 0.554875 1.31284e-010 -3.6986e-010 1.97015e-009 2.3454e-010 -6.39792e-010 3.40522e-009 1.31292e-010 -3.69862e-010 1.97015e-009 7.73091 5.47488 0.417314 1.31283e-010 -3.69861e-010 1.97015e-009 2.90554 0.965183 0.102902 1.31286e-010 -3.69861e-010 1.97014e-009 10.2786 0.731801 0.0259123 1.31278e-010 -3.69858e-010 1.97015e-009 2.22167 -0.733487 -0.20892 3.75371e-014 -7.22292e-014 5.64479e-014 -86.694 23.4092 12.0154 14.7265 -7.55564 -27.0282 0.0501113 6.36972 -0.898961 -1.52967e-010 -6.94907e-010 -1.0675e-009 -2.71402e-010 -1.20231e-009 -1.84568e-009 -1.52972e-010 -6.94911e-010 -1.06748e-009 -7.73091 5.47488 -0.417314 -1.52965e-010 -6.94907e-010 -1.0675e-009 -2.90554 0.965183 -0.102902 -1.52973e-010 -6.9491e-010 -1.0675e-009 -10.2786 0.731801 -0.0259123 -1.52967e-010 -6.94904e-010 -1.06751e-009 -2.22167 -0.733487 0.20892 -2.03217e-016 0 -3.88251e-019 10.0203 9.93863 2.81055 0.0777271 4.35622 0.680021 -2.92977 -8.67935 -14.1767 2.03217e-016 0 3.88251e-019 0.857264 -42.8867 -4.17899 0.117132 22.6194 -0.522857 -0.205112 -4.81831 -4.40705 
0.344286 82.2017 -170.848 -5.65255 11.4794 -0.262151 6.26163 4.37931 7.38724 4.47463 -1.47035 2.18017 -9.30495 -1.25034 -0.918719 -5.64696 -7.80016 0.624051 -0 0 0 -0 0 0 4.7481e-014 -1.17671e-013 6.04305e-014 71.8432 -17.3813 3.02948 -4.62122 -1.46396 8.03466 -0.0167358 3.69078 0.519431 3.47839e-010 -8.79959e-010 3.27415e-009 6.14416e-010 -1.52193e-009 5.65846e-009 3.47849e-010 -8.7996e-010 3.27415e-009 7.73091 5.47488 0.417314 3.47838e-010 -8.79959e-010 3.27415e-009 2.90554 0.965183 0.102902 3.47841e-010 -8.79959e-010 3.27415e-009 10.2786 0.731801 0.0259123 3.47833e-010 -8.79957e-010 3.27416e-009 2.22167 -0.733487 -0.20892 4.75413e-014 -1.1769e-013 6.03808e-014 -86.5547 23.3035 12.0223 14.6187 -7.46469 -26.8075 0.0529035 6.54965 -0.924563 -2.20067e-011 -1.04085e-009 -1.77647e-009 -4.90803e-011 -1.80078e-009 -3.07362e-009 -2.20122e-011 -1.04086e-009 -1.77645e-009 -7.73091 5.47488 -0.417314 -2.2005e-011 -1.04085e-009 -1.77647e-009 -2.90554 0.965183 -0.102902 -2.20116e-011 -1.04086e-009 -1.77647e-009 -10.2786 0.731801 -0.0259123 -2.20065e-011 -1.04085e-009 -1.77649e-009 -2.22167 -0.733487 0.20892 -2.03217e-016 0 -3.88251e-019 9.62915 10.0343 2.56036 0.0751417 4.86961 0.680816 -2.78453 -8.19225 -13.8644 2.03217e-016 0 3.88251e-019 0.40931 -42.6217 -4.18927 0.118989 22.7422 -0.514572 -0.232617 -4.06072 -4.9647 
